G04 (created by PCBNEW (2013-jul-07)-stable) date Mon 16 Jun 2014 12:34:42 AM EDT*
%MOIN*%
G04 Gerber Fmt 3.4, Leading zero omitted, Abs format*
%FSLAX34Y34*%
G01*
G70*
G90*
G04 APERTURE LIST*
%ADD10C,0.00590551*%
%ADD11C,0.005*%
%ADD12C,0.00787402*%
%ADD13C,0.00708661*%
G04 APERTURE END LIST*
G54D10*
G54D11*
X85794Y-59251D02*
G75*
G03X85794Y-59251I-598J0D01*
G74*
G01*
X87428Y-59251D02*
G75*
G03X87428Y-59251I-2232J0D01*
G74*
G01*
X83094Y-61353D02*
X87298Y-61353D01*
X87298Y-61353D02*
X87298Y-57149D01*
X87298Y-57149D02*
X83094Y-57149D01*
X83094Y-57149D02*
X83094Y-61353D01*
G54D12*
X87110Y-60395D02*
X87110Y-60714D01*
X87092Y-60751D01*
X87073Y-60770D01*
X87035Y-60789D01*
X86961Y-60789D01*
X86923Y-60770D01*
X86904Y-60751D01*
X86886Y-60714D01*
X86886Y-60395D01*
X86492Y-60789D02*
X86717Y-60789D01*
X86604Y-60789D02*
X86604Y-60395D01*
X86642Y-60451D01*
X86679Y-60489D01*
X86717Y-60508D01*
G54D13*
X85759Y-60624D02*
X85714Y-60639D01*
X85639Y-60639D01*
X85609Y-60624D01*
X85594Y-60609D01*
X85579Y-60579D01*
X85579Y-60549D01*
X85594Y-60519D01*
X85609Y-60504D01*
X85639Y-60489D01*
X85699Y-60474D01*
X85729Y-60459D01*
X85744Y-60444D01*
X85759Y-60414D01*
X85759Y-60384D01*
X85744Y-60354D01*
X85729Y-60339D01*
X85699Y-60324D01*
X85624Y-60324D01*
X85579Y-60339D01*
X85384Y-60324D02*
X85324Y-60324D01*
X85294Y-60339D01*
X85264Y-60369D01*
X85249Y-60429D01*
X85249Y-60534D01*
X85264Y-60594D01*
X85294Y-60624D01*
X85324Y-60639D01*
X85384Y-60639D01*
X85414Y-60624D01*
X85444Y-60594D01*
X85459Y-60534D01*
X85459Y-60429D01*
X85444Y-60369D01*
X85414Y-60339D01*
X85384Y-60324D01*
X85114Y-60639D02*
X85114Y-60324D01*
X84994Y-60324D01*
X84964Y-60339D01*
X84949Y-60354D01*
X84934Y-60384D01*
X84934Y-60429D01*
X84949Y-60459D01*
X84964Y-60474D01*
X84994Y-60489D01*
X85114Y-60489D01*
X84754Y-60459D02*
X84784Y-60444D01*
X84799Y-60429D01*
X84814Y-60399D01*
X84814Y-60384D01*
X84799Y-60354D01*
X84784Y-60339D01*
X84754Y-60324D01*
X84694Y-60324D01*
X84664Y-60339D01*
X84649Y-60354D01*
X84634Y-60384D01*
X84634Y-60399D01*
X84649Y-60429D01*
X84664Y-60444D01*
X84694Y-60459D01*
X84754Y-60459D01*
X84784Y-60474D01*
X84799Y-60489D01*
X84814Y-60519D01*
X84814Y-60579D01*
X84799Y-60609D01*
X84784Y-60624D01*
X84754Y-60639D01*
X84694Y-60639D01*
X84664Y-60624D01*
X84649Y-60609D01*
X84634Y-60579D01*
X84634Y-60519D01*
X84649Y-60489D01*
X84664Y-60474D01*
X84694Y-60459D01*
M02*
