G04 (created by PCBNEW (2013-jul-07)-stable) date Mon 16 Jun 2014 12:34:42 AM EDT*
%MOIN*%
G04 Gerber Fmt 3.4, Leading zero omitted, Abs format*
%FSLAX34Y34*%
G01*
G70*
G90*
G04 APERTURE LIST*
%ADD10C,0.00590551*%
%ADD11C,0.00393701*%
%ADD12C,0.00708661*%
%ADD13C,0.005*%
%ADD14C,0.00314961*%
%ADD15C,0.00354331*%
%ADD16C,0.00787402*%
G04 APERTURE END LIST*
G54D10*
X83442Y-57607D02*
X83442Y-57832D01*
X83427Y-57877D01*
X83397Y-57907D01*
X83352Y-57922D01*
X83322Y-57922D01*
X83577Y-57832D02*
X83727Y-57832D01*
X83547Y-57922D02*
X83652Y-57607D01*
X83757Y-57922D01*
X84026Y-57622D02*
X83997Y-57607D01*
X83952Y-57607D01*
X83907Y-57622D01*
X83877Y-57652D01*
X83862Y-57682D01*
X83847Y-57742D01*
X83847Y-57787D01*
X83862Y-57847D01*
X83877Y-57877D01*
X83907Y-57907D01*
X83952Y-57922D01*
X83982Y-57922D01*
X84026Y-57907D01*
X84041Y-57892D01*
X84041Y-57787D01*
X83982Y-57787D01*
X84401Y-57637D02*
X84416Y-57622D01*
X84446Y-57607D01*
X84521Y-57607D01*
X84551Y-57622D01*
X84566Y-57637D01*
X84581Y-57667D01*
X84581Y-57697D01*
X84566Y-57742D01*
X84386Y-57922D01*
X84581Y-57922D01*
X84776Y-57607D02*
X84806Y-57607D01*
X84836Y-57622D01*
X84851Y-57637D01*
X84866Y-57667D01*
X84881Y-57727D01*
X84881Y-57802D01*
X84866Y-57862D01*
X84851Y-57892D01*
X84836Y-57907D01*
X84806Y-57922D01*
X84776Y-57922D01*
X84746Y-57907D01*
X84731Y-57892D01*
X84716Y-57862D01*
X84701Y-57802D01*
X84701Y-57727D01*
X84716Y-57667D01*
X84731Y-57637D01*
X84746Y-57622D01*
X84776Y-57607D01*
X85181Y-57922D02*
X85001Y-57922D01*
X85091Y-57922D02*
X85091Y-57607D01*
X85061Y-57652D01*
X85031Y-57682D01*
X85001Y-57697D01*
X85451Y-57712D02*
X85451Y-57922D01*
X85376Y-57592D02*
X85301Y-57817D01*
X85496Y-57817D01*
G54D11*
X83816Y-60853D02*
X83816Y-61013D01*
X83806Y-61032D01*
X83797Y-61041D01*
X83778Y-61050D01*
X83750Y-61050D01*
X83731Y-61041D01*
X83816Y-60975D02*
X83797Y-60985D01*
X83759Y-60985D01*
X83741Y-60975D01*
X83731Y-60966D01*
X83722Y-60947D01*
X83722Y-60891D01*
X83731Y-60872D01*
X83741Y-60863D01*
X83759Y-60853D01*
X83797Y-60853D01*
X83816Y-60863D01*
X83909Y-60985D02*
X83909Y-60853D01*
X83909Y-60788D02*
X83900Y-60797D01*
X83909Y-60807D01*
X83919Y-60797D01*
X83909Y-60788D01*
X83909Y-60807D01*
X83975Y-60853D02*
X84050Y-60853D01*
X84003Y-60788D02*
X84003Y-60957D01*
X84012Y-60975D01*
X84031Y-60985D01*
X84050Y-60985D01*
X84116Y-60966D02*
X84125Y-60975D01*
X84116Y-60985D01*
X84106Y-60975D01*
X84116Y-60966D01*
X84116Y-60985D01*
X84116Y-60863D02*
X84125Y-60872D01*
X84116Y-60882D01*
X84106Y-60872D01*
X84116Y-60863D01*
X84116Y-60882D01*
X84331Y-60853D02*
X84406Y-60853D01*
X84359Y-60985D02*
X84359Y-60816D01*
X84369Y-60797D01*
X84387Y-60788D01*
X84406Y-60788D01*
X84575Y-60985D02*
X84462Y-60985D01*
X84519Y-60985D02*
X84519Y-60788D01*
X84500Y-60816D01*
X84481Y-60835D01*
X84462Y-60844D01*
X84631Y-60853D02*
X84706Y-60853D01*
X84659Y-60985D02*
X84659Y-60816D01*
X84669Y-60797D01*
X84687Y-60788D01*
X84706Y-60788D01*
X84856Y-60853D02*
X84856Y-60985D01*
X84809Y-60778D02*
X84762Y-60919D01*
X84884Y-60919D01*
X84997Y-60788D02*
X85015Y-60788D01*
X85034Y-60797D01*
X85044Y-60807D01*
X85053Y-60825D01*
X85062Y-60863D01*
X85062Y-60910D01*
X85053Y-60947D01*
X85044Y-60966D01*
X85034Y-60975D01*
X85015Y-60985D01*
X84997Y-60985D01*
X84978Y-60975D01*
X84969Y-60966D01*
X84959Y-60947D01*
X84950Y-60910D01*
X84950Y-60863D01*
X84959Y-60825D01*
X84969Y-60807D01*
X84978Y-60797D01*
X84997Y-60788D01*
X85231Y-60975D02*
X85212Y-60985D01*
X85175Y-60985D01*
X85156Y-60975D01*
X85147Y-60966D01*
X85137Y-60947D01*
X85137Y-60891D01*
X85147Y-60872D01*
X85156Y-60863D01*
X85175Y-60853D01*
X85212Y-60853D01*
X85231Y-60863D01*
X85297Y-60788D02*
X85419Y-60788D01*
X85353Y-60863D01*
X85381Y-60863D01*
X85400Y-60872D01*
X85409Y-60882D01*
X85419Y-60900D01*
X85419Y-60947D01*
X85409Y-60966D01*
X85400Y-60975D01*
X85381Y-60985D01*
X85325Y-60985D01*
X85306Y-60975D01*
X85297Y-60966D01*
X85512Y-60985D02*
X85550Y-60985D01*
X85568Y-60975D01*
X85578Y-60966D01*
X85597Y-60938D01*
X85606Y-60900D01*
X85606Y-60825D01*
X85597Y-60807D01*
X85587Y-60797D01*
X85568Y-60788D01*
X85531Y-60788D01*
X85512Y-60797D01*
X85503Y-60807D01*
X85494Y-60825D01*
X85494Y-60872D01*
X85503Y-60891D01*
X85512Y-60900D01*
X85531Y-60910D01*
X85568Y-60910D01*
X85587Y-60900D01*
X85597Y-60891D01*
X85606Y-60872D01*
X85775Y-60985D02*
X85775Y-60882D01*
X85765Y-60863D01*
X85747Y-60853D01*
X85709Y-60853D01*
X85690Y-60863D01*
X85775Y-60975D02*
X85756Y-60985D01*
X85709Y-60985D01*
X85690Y-60975D01*
X85681Y-60957D01*
X85681Y-60938D01*
X85690Y-60919D01*
X85709Y-60910D01*
X85756Y-60910D01*
X85775Y-60900D01*
X85953Y-60985D02*
X85953Y-60882D01*
X85943Y-60863D01*
X85925Y-60853D01*
X85887Y-60853D01*
X85868Y-60863D01*
X85953Y-60975D02*
X85934Y-60985D01*
X85887Y-60985D01*
X85868Y-60975D01*
X85859Y-60957D01*
X85859Y-60938D01*
X85868Y-60919D01*
X85887Y-60910D01*
X85934Y-60910D01*
X85953Y-60900D01*
G54D12*
X82710Y-60708D02*
X82665Y-60686D01*
X82643Y-60663D01*
X82620Y-60618D01*
X82620Y-60596D01*
X82643Y-60551D01*
X82665Y-60528D01*
X82710Y-60506D01*
X82800Y-60506D01*
X82845Y-60528D01*
X82868Y-60551D01*
X82890Y-60596D01*
X82890Y-60618D01*
X82868Y-60663D01*
X82845Y-60686D01*
X82800Y-60708D01*
X82710Y-60708D01*
X82665Y-60731D01*
X82643Y-60753D01*
X82620Y-60798D01*
X82620Y-60888D01*
X82643Y-60933D01*
X82665Y-60956D01*
X82710Y-60978D01*
X82800Y-60978D01*
X82845Y-60956D01*
X82868Y-60933D01*
X82890Y-60888D01*
X82890Y-60798D01*
X82868Y-60753D01*
X82845Y-60731D01*
X82800Y-60708D01*
X82868Y-57553D02*
X82643Y-57553D01*
X82620Y-57778D01*
X82643Y-57755D01*
X82688Y-57733D01*
X82800Y-57733D01*
X82845Y-57755D01*
X82868Y-57778D01*
X82890Y-57823D01*
X82890Y-57935D01*
X82868Y-57980D01*
X82845Y-58003D01*
X82800Y-58025D01*
X82688Y-58025D01*
X82643Y-58003D01*
X82620Y-57980D01*
X87727Y-57671D02*
X87727Y-57986D01*
X87615Y-57491D02*
X87502Y-57829D01*
X87795Y-57829D01*
X87772Y-60978D02*
X87502Y-60978D01*
X87637Y-60978D02*
X87637Y-60506D01*
X87592Y-60573D01*
X87547Y-60618D01*
X87502Y-60641D01*
G54D10*
X86058Y-59251D02*
G75*
G03X86058Y-59251I-861J0D01*
G74*
G01*
X86676Y-60059D02*
G75*
G03X86676Y-60059I-93J0D01*
G74*
G01*
X86763Y-60240D02*
X86763Y-58263D01*
X86763Y-58263D02*
X83629Y-58263D01*
X83629Y-58263D02*
X83629Y-60240D01*
X83629Y-60240D02*
X86763Y-60240D01*
G54D13*
X85794Y-59251D02*
G75*
G03X85794Y-59251I-598J0D01*
G74*
G01*
G54D14*
X87027Y-57627D02*
X86742Y-57883D01*
G54D15*
X87076Y-57755D02*
G75*
G03X87076Y-57755I-196J0D01*
G74*
G01*
X86072Y-57755D02*
G75*
G03X86072Y-57755I-196J0D01*
G74*
G01*
X86574Y-57755D02*
G75*
G03X86574Y-57755I-196J0D01*
G74*
G01*
G54D16*
X86550Y-60395D02*
X86550Y-60714D01*
X86569Y-60751D01*
X86587Y-60770D01*
X86625Y-60789D01*
X86700Y-60789D01*
X86737Y-60770D01*
X86756Y-60751D01*
X86775Y-60714D01*
X86775Y-60395D01*
X87131Y-60395D02*
X87056Y-60395D01*
X87019Y-60414D01*
X87000Y-60433D01*
X86962Y-60489D01*
X86944Y-60564D01*
X86944Y-60714D01*
X86962Y-60751D01*
X86981Y-60770D01*
X87019Y-60789D01*
X87094Y-60789D01*
X87131Y-60770D01*
X87150Y-60751D01*
X87169Y-60714D01*
X87169Y-60620D01*
X87150Y-60583D01*
X87131Y-60564D01*
X87094Y-60545D01*
X87019Y-60545D01*
X86981Y-60564D01*
X86962Y-60583D01*
X86944Y-60620D01*
G54D12*
X84484Y-60624D02*
X84529Y-60639D01*
X84604Y-60639D01*
X84634Y-60624D01*
X84649Y-60609D01*
X84664Y-60579D01*
X84664Y-60549D01*
X84649Y-60519D01*
X84634Y-60504D01*
X84604Y-60489D01*
X84544Y-60474D01*
X84514Y-60459D01*
X84499Y-60444D01*
X84484Y-60414D01*
X84484Y-60384D01*
X84499Y-60354D01*
X84514Y-60339D01*
X84544Y-60324D01*
X84619Y-60324D01*
X84664Y-60339D01*
X84784Y-60624D02*
X84829Y-60639D01*
X84904Y-60639D01*
X84934Y-60624D01*
X84949Y-60609D01*
X84964Y-60579D01*
X84964Y-60549D01*
X84949Y-60519D01*
X84934Y-60504D01*
X84904Y-60489D01*
X84844Y-60474D01*
X84814Y-60459D01*
X84799Y-60444D01*
X84784Y-60414D01*
X84784Y-60384D01*
X84799Y-60354D01*
X84814Y-60339D01*
X84844Y-60324D01*
X84919Y-60324D01*
X84964Y-60339D01*
X85159Y-60324D02*
X85219Y-60324D01*
X85249Y-60339D01*
X85279Y-60369D01*
X85294Y-60429D01*
X85294Y-60534D01*
X85279Y-60594D01*
X85249Y-60624D01*
X85219Y-60639D01*
X85159Y-60639D01*
X85129Y-60624D01*
X85099Y-60594D01*
X85084Y-60534D01*
X85084Y-60429D01*
X85099Y-60369D01*
X85129Y-60339D01*
X85159Y-60324D01*
X85429Y-60639D02*
X85429Y-60324D01*
X85549Y-60324D01*
X85579Y-60339D01*
X85594Y-60354D01*
X85609Y-60384D01*
X85609Y-60429D01*
X85594Y-60459D01*
X85579Y-60474D01*
X85549Y-60489D01*
X85429Y-60489D01*
X85789Y-60459D02*
X85759Y-60444D01*
X85744Y-60429D01*
X85729Y-60399D01*
X85729Y-60384D01*
X85744Y-60354D01*
X85759Y-60339D01*
X85789Y-60324D01*
X85849Y-60324D01*
X85879Y-60339D01*
X85894Y-60354D01*
X85909Y-60384D01*
X85909Y-60399D01*
X85894Y-60429D01*
X85879Y-60444D01*
X85849Y-60459D01*
X85789Y-60459D01*
X85759Y-60474D01*
X85744Y-60489D01*
X85729Y-60519D01*
X85729Y-60579D01*
X85744Y-60609D01*
X85759Y-60624D01*
X85789Y-60639D01*
X85849Y-60639D01*
X85879Y-60624D01*
X85894Y-60609D01*
X85909Y-60579D01*
X85909Y-60519D01*
X85894Y-60489D01*
X85879Y-60474D01*
X85849Y-60459D01*
G54D15*
X85845Y-57824D02*
X85838Y-57831D01*
X85815Y-57839D01*
X85800Y-57839D01*
X85778Y-57831D01*
X85763Y-57816D01*
X85755Y-57801D01*
X85748Y-57771D01*
X85748Y-57749D01*
X85755Y-57719D01*
X85763Y-57704D01*
X85778Y-57689D01*
X85800Y-57681D01*
X85815Y-57681D01*
X85838Y-57689D01*
X85845Y-57696D01*
X86003Y-57824D02*
X85995Y-57831D01*
X85973Y-57839D01*
X85958Y-57839D01*
X85935Y-57831D01*
X85920Y-57816D01*
X85913Y-57801D01*
X85905Y-57771D01*
X85905Y-57749D01*
X85913Y-57719D01*
X85920Y-57704D01*
X85935Y-57689D01*
X85958Y-57681D01*
X85973Y-57681D01*
X85995Y-57689D01*
X86003Y-57696D01*
X86829Y-57838D02*
X86854Y-57847D01*
X86896Y-57847D01*
X86913Y-57838D01*
X86922Y-57830D01*
X86930Y-57813D01*
X86930Y-57796D01*
X86922Y-57779D01*
X86913Y-57771D01*
X86896Y-57762D01*
X86863Y-57754D01*
X86846Y-57746D01*
X86837Y-57737D01*
X86829Y-57720D01*
X86829Y-57703D01*
X86837Y-57687D01*
X86846Y-57678D01*
X86863Y-57670D01*
X86905Y-57670D01*
X86930Y-57678D01*
X86879Y-57644D02*
X86879Y-57872D01*
X86317Y-57756D02*
X86340Y-57764D01*
X86347Y-57771D01*
X86355Y-57786D01*
X86355Y-57809D01*
X86347Y-57824D01*
X86340Y-57831D01*
X86325Y-57839D01*
X86265Y-57839D01*
X86265Y-57681D01*
X86317Y-57681D01*
X86332Y-57689D01*
X86340Y-57696D01*
X86347Y-57711D01*
X86347Y-57726D01*
X86340Y-57741D01*
X86332Y-57749D01*
X86317Y-57756D01*
X86265Y-57756D01*
X86452Y-57764D02*
X86452Y-57839D01*
X86400Y-57681D02*
X86452Y-57764D01*
X86505Y-57681D01*
M02*
