G04 (created by PCBNEW (2013-jul-07)-stable) date Mon 16 Jun 2014 12:34:42 AM EDT*
%MOIN*%
G04 Gerber Fmt 3.4, Leading zero omitted, Abs format*
%FSLAX34Y34*%
G01*
G70*
G90*
G04 APERTURE LIST*
%ADD10C,0.00590551*%
%ADD11R,0.0531496X0.0271654*%
%ADD12C,0.06*%
%ADD13C,0.0271654*%
G04 APERTURE END LIST*
G54D10*
G54D11*
X87131Y-60001D03*
X87131Y-59501D03*
X87131Y-59001D03*
X87131Y-58501D03*
X83261Y-58501D03*
X83261Y-59001D03*
X83261Y-59501D03*
X83261Y-60001D03*
G54D12*
X88496Y-59751D03*
X88496Y-58751D03*
X88496Y-57751D03*
X88496Y-60751D03*
X81897Y-57751D03*
X81897Y-58751D03*
X81897Y-59751D03*
X81897Y-60751D03*
G54D13*
X87131Y-59501D02*
X87718Y-59501D01*
X87718Y-59501D02*
X87968Y-59751D01*
X87968Y-59751D02*
X88496Y-59751D01*
X87131Y-59001D02*
X87718Y-59001D01*
X87718Y-59001D02*
X87968Y-58751D01*
X87968Y-58751D02*
X88496Y-58751D01*
X87131Y-58501D02*
X87580Y-58501D01*
X87580Y-58501D02*
X87692Y-58389D01*
X87692Y-58389D02*
X87692Y-57858D01*
X87692Y-57858D02*
X87799Y-57751D01*
X87799Y-57751D02*
X88496Y-57751D01*
X87131Y-60001D02*
X87553Y-60001D01*
X87553Y-60001D02*
X87685Y-60133D01*
X87685Y-60133D02*
X87685Y-60653D01*
X87685Y-60653D02*
X87783Y-60751D01*
X87783Y-60751D02*
X88496Y-60751D01*
X83261Y-58501D02*
X82915Y-58501D01*
X82915Y-58501D02*
X82814Y-58401D01*
X82814Y-58401D02*
X82814Y-57877D01*
X82814Y-57877D02*
X82688Y-57751D01*
X82688Y-57751D02*
X81897Y-57751D01*
X83261Y-59001D02*
X82722Y-59001D01*
X82722Y-59001D02*
X82472Y-58751D01*
X82472Y-58751D02*
X81897Y-58751D01*
X83261Y-59501D02*
X82789Y-59501D01*
X82789Y-59501D02*
X82539Y-59751D01*
X82539Y-59751D02*
X81897Y-59751D01*
X83261Y-60001D02*
X82883Y-60001D01*
X82883Y-60001D02*
X82807Y-60078D01*
X82807Y-60078D02*
X82807Y-60622D01*
X82807Y-60622D02*
X82677Y-60751D01*
X82677Y-60751D02*
X81897Y-60751D01*
M02*
